<?xml version="1.0" encoding="UTF-8"?>
<svg width="13px" height="12px" viewBox="0 0 13 12" version="1.1" xmlns="http://www.w3.org/2000/svg" xmlns:xlink="http://www.w3.org/1999/xlink">
    <title>Path</title>
    <g id="Page-1" stroke="none" stroke-width="1" fill="none" fill-rule="evenodd">
        <g id="Homepage" transform="translate(-876, -1731)" fill="#1E4459" fill-rule="nonzero">
            <g id="Our-Turbine-Technology" transform="translate(320, 1136)">
                <g id="View-Details" transform="translate(450, 590)">
                    <g id="icon-arrow-right" transform="translate(106, 5)">
                        <path d="M12.7279424,6.70597423 C13.0906859,6.31550176 13.0906859,5.68137446 12.7279424,5.29090199 L8.08482616,0.292854354 C7.72208271,-0.0976181179 7.13298733,-0.0976181179 6.77024388,0.292854354 C6.40750042,0.683326825 6.40750042,1.31745412 6.77024388,1.70792659 L9.83179865,5.00039047 L0.928623249,5.00039047 C0.414978514,5.00039047 0,5.44709098 0,6 C0,6.55290902 0.414978514,6.99960953 0.928623249,6.99960953 L9.8288967,6.99960953 L6.77314582,10.2920734 C6.41040237,10.6825459 6.41040237,11.3166732 6.77314582,11.7071456 C7.13588928,12.0976181 7.72498465,12.0976181 8.08772811,11.7071456 L12.7308444,6.70909801 L12.7279424,6.70597423 Z" id="Path"></path>
                    </g>
                </g>
            </g>
        </g>
    </g>
</svg>