<svg xmlns="http://www.w3.org/2000/svg" width="35" height="35" viewBox="0 0 35 35"><path fill="#1B1A22" d="M35,17.5 C35,7.83501688 27.1649831,0 17.5,0 C7.83501688,0 0,7.83501688 0,17.5 C0,27.1649831 7.83501688,35 17.5,35 C27.1649831,35 35,27.1649831 35,17.5 Z M18.5253906,9.22851562 C19.1679688,8.5859375 20.2070312,8.5859375 20.8427734,9.22851562 C21.4785156,9.87109375 21.4853516,10.9101562 20.8427734,11.5458984 L14.8955078,17.4931641 L20.8427734,23.4404297 C21.4853516,24.0830078 21.4853516,25.1220703 20.8427734,25.7578125 C20.2001953,26.3935547 19.1611328,26.4003906 18.5253906,25.7578125 L11.4160156,18.6621094 C10.7734375,18.0195312 10.7734375,16.9804688 11.4160156,16.3447266 L18.5253906,9.22851562 Z"/></svg>