<svg xmlns="http://www.w3.org/2000/svg" width="35" height="35" viewBox="0 0 35 35"><path fill="#1B1A22" d="M0,17.5 C0,27.1649831 7.83501688,35 17.5,35 C27.1649831,35 35,27.1649831 35,17.5 C35,7.83501688 27.1649831,0 17.5,0 C7.83501688,0 0,7.83501688 0,17.5 Z M16.4746094,25.7714844 C15.8320312,26.4140625 14.7929687,26.4140625 14.1572266,25.7714844 C13.5214844,25.1289063 13.5146484,24.0898438 14.1572266,23.4541016 L20.1044922,17.5068359 L14.1572266,11.5595703 C13.5146484,10.9169922 13.5146484,9.87792969 14.1572266,9.2421875 C14.7998047,8.60644531 15.8388672,8.59960938 16.4746094,9.2421875 L23.5839844,16.3378906 C24.2265625,16.9804688 24.2265625,18.0195313 23.5839844,18.6552734 L16.4746094,25.7714844 Z"/></svg>